<svg width="24" height="25" viewBox="0 0 24 25" fill="none" xmlns="http://www.w3.org/2000/svg">
  <path
    fill-rule="evenodd"
    clip-rule="evenodd"
    d="M4.91347 9.5461C4.91347 7.75066 5.62671 6.02875 6.89628 4.75918C8.16585 3.48961 9.88776 2.77637 11.6832 2.77637C13.4787 2.77637 15.2006 3.48961 16.4701 4.75918C17.7397 6.02875 18.4529 7.75066 18.4529 9.5461V13.1863L20.215 16.7104C20.2961 16.8726 20.3344 17.0529 20.3263 17.234C20.3181 17.4152 20.2638 17.5913 20.1685 17.7456C20.0731 17.8998 19.9399 18.0271 19.7815 18.1154C19.6231 18.2037 19.4447 18.2501 19.2634 18.2501H15.4298C15.2147 19.0801 14.73 19.8151 14.0519 20.3399C13.3738 20.8647 12.5406 21.1494 11.6832 21.1494C10.8258 21.1494 9.99261 20.8647 9.31451 20.3399C8.63641 19.8151 8.15176 19.0801 7.93664 18.2501H4.10304C3.92168 18.2501 3.74333 18.2037 3.58493 18.1154C3.42652 18.0271 3.29332 17.8998 3.19797 17.7456C3.10262 17.5913 3.04829 17.4152 3.04014 17.234C3.03199 17.0529 3.07029 16.8726 3.1514 16.7104L4.91347 13.1863V9.5461ZM10.0082 18.2501C10.1779 18.5441 10.4221 18.7882 10.7161 18.958C11.0102 19.1277 11.3437 19.2171 11.6832 19.2171C12.0227 19.2171 12.3562 19.1277 12.6503 18.958C12.9443 18.7882 13.1885 18.5441 13.3582 18.2501H10.0082ZM11.6832 4.71058C10.4007 4.71058 9.17081 5.22003 8.26397 6.12687C7.35714 7.03371 6.84768 8.26364 6.84768 9.5461V13.1863C6.84766 13.4864 6.7778 13.7824 6.64362 14.0509L5.51211 16.3158H17.8553L16.7238 14.0509C16.5892 13.7825 16.5191 13.4865 16.5187 13.1863V9.5461C16.5187 8.26364 16.0093 7.03371 15.1024 6.12687C14.1956 5.22003 12.9657 4.71058 11.6832 4.71058Z"
    fill="#7F7F7F"
  />
</svg>
