<?xml version="1.0" encoding="UTF-8"?>
<svg id="svg1" width="39" height="51.273" fill="none" version="1.1" viewBox="0 0 39 51.273" xmlns="http://www.w3.org/2000/svg">
    <g id="booking" transform="translate(-4.5 -2.5)" fill="#fff">
        <path id="home" d="m23.672 2.5352a1.5002 1.5002 0 0 0-0.59375 0.28125l-18 14a1.5002 1.5002 0 0 0-0.57812 1.1836v22c0 1.4581 0.58016 2.8576 1.6113 3.8887 1.031 1.0312 2.4306 1.6113 3.8887 1.6113h2.4512v-3h-2.4512c-0.66369 0-1.2984-0.26319-1.7676-0.73242-0.46924-0.46917-0.73242-1.1039-0.73242-1.7676v-21.266l16.5-12.834 16.5 12.834v21.266c0 0.66366-0.2632 1.2984-0.73242 1.7676-0.46924 0.46927-1.1039 0.73242-1.7676 0.73242h-2.4512v3h2.4512c1.4581 0 2.8576-0.5802 3.8887-1.6113 1.0311-1.031 1.6113-2.4305 1.6113-3.8887v-22a1.5002 1.5002 0 0 0-0.57812-1.1836l-18-14a1.5002 1.5002 0 0 0-1.25-0.28125z" stroke-linejoin="round"/>
        <path id="bookmark" d="m15.744 24.055c-0.90804 0-1.6854 0.32406-2.332 0.9707-0.64664 0.64664-0.96875 1.424-0.96875 2.332v26.416l11.557-4.9531 11.557 4.9531v-26.416c0-0.90804-0.32206-1.6854-0.96875-2.332-0.64669-0.64664-1.424-0.9707-2.332-0.9707zm0 3.3027h16.512v21.381l-8.2559-3.5508-8.2559 3.5508z"/>
    </g>
</svg>
