<svg width="22" height="23" viewBox="0 0 22 23" fill="none" xmlns="http://www.w3.org/2000/svg">
  <path
    d="M7.40171 12.6475C6.01741 13.5737 5.00087 14.0511 3.59757 14.4834C2.65612 14.7735 1.72098 15.1304 1.24951 15.9954V15.9954C0.303703 17.7306 2.27699 19.5832 4.17862 20.1211C9.61394 21.6585 13.3471 21.551 18.4629 19.7856C19.5777 19.4009 20.5706 18.9652 20.8535 17.8203V17.8203C21.3114 15.967 19.0546 14.5508 17.2201 14.0225C16.1887 13.7254 15.2791 13.3307 14.4041 12.6475"
    stroke="black" stroke-opacity="0.5" stroke-width="2" stroke-linecap="round" />
  <path
    d="M14.9269 5.44726C14.9269 6.71907 14.4662 8.09227 13.7207 9.1335C12.9661 10.1874 12.0429 10.7473 11.1705 10.7473C10.298 10.7473 9.37485 10.1874 8.62027 9.1335C7.87479 8.09227 7.41406 6.71907 7.41406 5.44726C7.41406 4.21253 7.84486 3.37401 8.46522 2.83187C9.10446 2.27324 10.0412 1.94727 11.1705 1.94727C12.2997 1.94727 13.2365 2.27324 13.8757 2.83187C14.4961 3.37401 14.9269 4.21253 14.9269 5.44726Z"
    stroke="black" stroke-opacity="0.5" stroke-width="2" />
</svg>
